<svg width="23" height="22" viewBox="0 0 23 22" fill="none" xmlns="http://www.w3.org/2000/svg">
<path d="M2.8572 13.3571V20.4286C2.8572 20.6369 2.93998 20.8368 3.08733 20.9841C3.23468 21.1315 3.43453 21.2143 3.64291 21.2143H19.3572C19.5656 21.2143 19.7654 21.1315 19.9128 20.9841C20.0601 20.8368 20.1429 20.6369 20.1429 20.4286V13.3571M13.0715 13.3571V21.2143M2.8572 15.7143H13.0715M1.28577 6.28571L3.64291 0.785706H19.3572L21.7143 6.28571H1.28577ZM1.28577 6.28571V7.85713C1.28577 8.69067 1.61689 9.49007 2.20629 10.0795C2.79569 10.6689 3.59509 11 4.42862 11H4.86862C5.70216 11 6.50156 10.6689 7.09096 10.0795C7.68036 9.49007 8.01148 8.69067 8.01148 7.85713V6.28571" stroke="#F9F9F9" stroke-width="1.71429" stroke-linecap="round" stroke-linejoin="round"/>
<path d="M15.0358 6.28571V7.85713M15.0358 7.85713C15.0358 8.69067 14.7047 9.49007 14.1153 10.0795C13.5259 10.6689 12.7265 11 11.8929 11H11.1072C10.2737 11 9.47428 10.6689 8.88488 10.0795C8.29548 9.49007 7.96436 8.69067 7.96436 7.85713V6.28571M15.0358 7.85713C15.0358 8.69067 15.3669 9.49007 15.9563 10.0795C16.5457 10.6689 17.3451 11 18.1786 11H18.5715C19.405 11 20.2044 10.6689 20.7938 10.0795C21.3832 9.49007 21.7144 8.69067 21.7144 7.85713V6.28571" stroke="#F9F9F9" stroke-width="1.71429" stroke-linecap="round" stroke-linejoin="round"/>
</svg>
